
        <svg xmlns="http://www.w3.org/2000/svg" xmlns:xlink="http://www.w3.org/1999/xlink" version="1.1" width="2871.6643868249603" height="3225.781966531692" viewBox="0 0 2871.6643868249603 3225.781966531692">
			
			<g transform="scale(11.289098326584611) translate(10, 10)">
				<defs id="SvgjsDefs1327"/><g id="SvgjsG1328" featureKey="rootContainer" transform="matrix(4.725301111045653,0,0,4.725301111045653,0.0000347689931040783,0.019721259814305742)" fill="#000"><path xmlns="http://www.w3.org/2000/svg" d="M23.11 55.78L1.69 43.41A3.39 3.39 0 0 1 0 40.48V15.75a3.39 3.39 0 0 1 1.69-2.94L23.11.45a3.39 3.39 0 0 1 3.39 0l21.41 12.37a3.39 3.39 0 0 1 1.69 2.94v24.72a3.39 3.39 0 0 1-1.69 2.94L26.5 55.78a3.39 3.39 0 0 1-3.39 0z"/></g><g id="SvgjsG1329" featureKey="symbolFeature-0" transform="matrix(1.1664255746496082,0,0,1.1664255746496082,58.522418776611154,57.20561730309471)" fill="#ffffff"><g xmlns="http://www.w3.org/2000/svg"><g><path d="M49.919,64.35c-0.147,0-0.294-0.031-0.435-0.089L27.857,55v13.661c0,0,8.729,10.173,22.252,10.199v0.002    c0.008,0,0.017-0.002,0.025-0.002c0.005,0,0.013,0.002,0.021,0.002V78.86c13.523-0.026,22.252-10.199,22.252-10.199V55.039    l-22.062,9.226C50.211,64.321,50.065,64.35,49.919,64.35z"/><path d="M48.721,46.977c-8.465-1.005-18.707-2.066-23.296,3.45l2.432,1.087v0.003l22.068,9.448l0.002-0.002v0.002L93,42.954    L50.193,24.686L7.268,42.696l13.785,5.901c-0.83,1.074-2.46,4.405-3.057,5.689c-1.003,0.169-1.779,0.999-1.779,2.05    c0,0.748,0.411,1.375,0.997,1.751h-0.069l-1.625,10.38h5.443l-1.435-10.38h-0.069c0.588-0.376,0.999-1.003,0.999-1.751    c0-0.456-0.177-0.854-0.419-1.2c2.434-5.186,7.922-10.538,14.543-11.759c4.585-0.696,9.637-0.491,14.146,0.043    c0.607,0.071,1.479,1.477,1.407,2.082C50.062,46.107,49.331,47.059,48.721,46.977z"/></g></g></g><g id="SvgjsG1330" featureKey="nameFeature-0" transform="matrix(0.36534429306748945,0,0,0.36534429306748945,40.956174816653316,164.82473619907697)" fill="#ffffff"><path d="M2.8571 35.7143 l0 -24.286 l7.4286 0 l0 22.286 l15.429 0 l0 6.2857 l-18.571 0 z M30 40 l0 -5.7143 l2.2857 0 l0 -17.143 l-2.2857 0 l0 -5.7143 l12 0 l0 5.7143 l-2.2857 0 l0 17.143 l2.2857 0 l0 5.7143 l-12 0 z M73.42814285714286 15.713999999999999 l0 6.9714 l-3.0286 3.0286 l3.0286 3.0286 l0 6.9714 l-4.2857 4.2857 l-21.429 0 l0 -28.571 l21.429 0 z M66.00014285714286 22.571 l0 -4.8571 l-10.857 0 l0 4.8571 l10.857 0 z M66.00014285714286 33.7143 l0 -4.8571 l-10.857 0 l0 4.8571 l10.857 0 z M105.71385714285714 15.713999999999999 l0 10 l-4.2857 4.2857 l4.2857 6.5714 l0 3.4286 l-6.8571 0 l-5.9429 -9.7143 l-5.4857 0 l0 9.7143 l-7.4286 0 l0 -28.571 l21.429 0 z M98.28585714285714 24 l0 -6.2857 l-10.857 0 l0 6.2857 l10.857 0 z M112.28567142857142 40 l0 -24.286 l4.2857 -4.2857 l16.571 0 l4.2857 4.2857 l0 24.286 l-7.4286 0 l0 -8 l-10.286 0 l0 8 l-7.4286 0 z M119.71457142857142 25.714 l10.286 0 l0 -8 l-10.286 0 l0 8 z M169.71385714285714 15.713999999999999 l0 10 l-4.2857 4.2857 l4.2857 6.5714 l0 3.4286 l-6.8571 0 l-5.9429 -9.7143 l-5.4857 0 l0 9.7143 l-7.4286 0 l0 -28.571 l21.429 0 z M162.28585714285714 24 l0 -6.2857 l-10.857 0 l0 6.2857 l10.857 0 z M201.71457142857142 11.428999999999998 l0 3.4286 l-9.7143 15.714 l0 9.4286 l-7.4286 0 l0 -9.4857 l-9.7143 -15.657 l0 -3.4286 l6.5714 0 l6.8571 11.657 l6.8571 -11.657 l6.5714 0 z M223.429 17.714 l-9.1429 0 l0 16 l9.1429 0 l2.2857 -2.2857 l5.4286 0 l0 4.2857 l-4.2857 4.2857 l-15.714 0 l-4.2857 -4.2857 l0 -20 l4.2857 -4.2857 l15.714 0 l4.2857 4.2857 l0 4.2857 l-5.4286 0 z M237.71424285714286 40 l0 -24.286 l4.2857 -4.2857 l16.571 0 l4.2857 4.2857 l0 24.286 l-7.4286 0 l0 -8 l-10.286 0 l0 8 l-7.4286 0 z M245.14314285714286 25.714 l10.286 0 l0 -8 l-10.286 0 l0 8 z M267.42856857142857 17.714 l0 -6.2857 l24.286 0 l0 6.2857 l-8.4571 0 l0 22.286 l-7.4286 0 l0 -22.286 l-8.4 0 z M296.2856714285714 40 l0 -24.286 l4.2857 -4.2857 l16.571 0 l4.2857 4.2857 l0 24.286 l-7.4286 0 l0 -8 l-10.286 0 l0 8 l-7.4286 0 z M303.7145714285714 25.714 l10.286 0 l0 -8 l-10.286 0 l0 8 z M327.9999571428571 35.7143 l0 -24.286 l7.4286 0 l0 22.286 l15.429 0 l0 6.2857 l-18.571 0 z M376.8568571428571 11.428999999999998 l4.2857 4.2857 l0 20 l-4.2857 4.2857 l-16.571 0 l-4.2857 -4.2857 l0 -20 l4.2857 -4.2857 l16.571 0 z M373.71385714285714 33.7143 l0 -16 l-10.286 0 l0 16 l10.286 0 z M405.71414285714286 17.714 l-10.571 0 l0 16 l10.857 0 l0 -4.8571 l-6.5714 0 l0 -6.2857 l14 0 l0 13.143 l-4.2857 4.2857 l-17.143 0 l-4.2857 -4.2857 l0 -20 l4.2857 -4.2857 l17.143 0 l4.2857 4.2857 l0 4.2857 l-5.4286 0 z"/></g>
			</g>
		</svg>
	